<svg xmlns="http://www.w3.org/2000/svg" xmlns:xlink="http://www.w3.org/1999/xlink" width="1430" zoomAndPan="magnify" viewBox="40 468 1430 540" height="540" preserveAspectRatio="xMidYMid meet" version="1.0"><defs><g/><clipPath id="5f5c3ee898"><path d="M 66 485.972656 L 1434 485.972656 L 1434 988.472656 L 66 988.472656 Z M 66 485.972656 " clip-rule="nonzero"/></clipPath><clipPath id="0d047d423b"><path d="M 228.550781 485.972656 L 1360.78125 485.972656 C 1382.34375 485.972656 1402.800781 495.523438 1416.652344 512.050781 C 1430.503906 528.582031 1436.320312 550.394531 1432.546875 571.628906 L 1373.679688 902.617188 C 1364.863281 952.171875 1321.777344 988.273438 1271.445312 988.273438 L 139.214844 988.273438 C 117.652344 988.273438 97.191406 978.722656 83.34375 962.195312 C 69.492188 945.664062 63.675781 923.847656 67.449219 902.617188 L 126.316406 571.628906 C 135.132812 522.070312 178.21875 485.972656 228.550781 485.972656 Z M 228.550781 485.972656 " clip-rule="nonzero"/></clipPath><clipPath id="83aa9a8c3f"><rect x="0" width="1102" y="0" height="403"/></clipPath><clipPath id="18d63e6b15"><path d="M 1233 578.015625 L 1236 578.015625 L 1236 581 L 1233 581 Z M 1233 578.015625 " clip-rule="nonzero"/></clipPath><clipPath id="da523928f3"><path d="M 1290 669 L 1292.328125 669 L 1292.328125 672 L 1290 672 Z M 1290 669 " clip-rule="nonzero"/></clipPath><clipPath id="f75c79ca42"><path d="M 1290 680 L 1292.328125 680 L 1292.328125 683 L 1290 683 Z M 1290 680 " clip-rule="nonzero"/></clipPath><clipPath id="87fd12b1d2"><path d="M 1154 770 L 1157 770 L 1157 773.015625 L 1154 773.015625 Z M 1154 770 " clip-rule="nonzero"/></clipPath><clipPath id="20a3a168ad"><path d="M 1097.328125 668 L 1100 668 L 1100 672 L 1097.328125 672 Z M 1097.328125 668 " clip-rule="nonzero"/></clipPath><clipPath id="09ad2b8334"><path d="M 1097.328125 680 L 1100 680 L 1100 682 L 1097.328125 682 Z M 1097.328125 680 " clip-rule="nonzero"/></clipPath><clipPath id="548eda0112"><path d="M 1245 578.015625 L 1247 578.015625 L 1247 580 L 1245 580 Z M 1245 578.015625 " clip-rule="nonzero"/></clipPath></defs><g clip-path="url(#5f5c3ee898)"><g clip-path="url(#0d047d423b)"><path stroke-linecap="butt" transform="matrix(0.75, 0, 0, 0.75, 52.216625, 485.972338)" fill="none" stroke-linejoin="miter" d="M 235.112229 0.000424145 L 1744.747775 0.000424145 C 1773.502986 0.000424145 1800.77903 12.7348 1819.247782 34.77126 C 1837.716533 56.812929 1845.471742 85.896265 1840.440492 114.208767 L 1761.950902 555.526514 C 1750.195693 621.599436 1692.747771 669.734857 1625.63839 669.734857 L 115.997635 669.734857 C 87.247633 669.734857 59.96638 657.000481 41.502837 634.964021 C 23.034086 612.922352 15.278877 583.833808 20.310127 555.526514 L 98.799717 114.208767 C 110.554926 48.130637 168.002848 0.000424145 235.112229 0.000424145 Z M 235.112229 0.000424145 " stroke="#ffffff" stroke-width="80" stroke-opacity="1" stroke-miterlimit="4"/></g></g><g transform="matrix(1, 0, 0, 1, 185, 572)"><g clip-path="url(#83aa9a8c3f)"><g fill="#000000" fill-opacity="1"><g transform="translate(0.661549, 308.830435)"><g><path d="M 0.40625 0 L 49.8125 -281.171875 L 140.578125 -281.171875 L 104.84375 -79.53125 L 196.421875 -79.53125 L 182.359375 0 Z M 0.40625 0 "/></g></g></g><g fill="#000000" fill-opacity="1"><g transform="translate(150.082248, 308.830435)"><g><path d="M 123.71875 5.625 C 101.21875 5.625 81.664062 1.136719 65.0625 -7.828125 C 48.46875 -16.796875 35.679688 -29.515625 26.703125 -45.984375 C 17.734375 -62.453125 13.25 -81.9375 13.25 -104.4375 C 13.25 -129.070312 16.597656 -152.367188 23.296875 -174.328125 C 29.992188 -196.285156 40.035156 -215.695312 53.421875 -232.5625 C 66.804688 -249.4375 83.335938 -262.691406 103.015625 -272.328125 C 122.703125 -281.972656 145.398438 -286.796875 171.109375 -286.796875 C 193.867188 -286.796875 213.484375 -282.375 229.953125 -273.53125 C 246.421875 -264.695312 259.140625 -252.046875 268.109375 -235.578125 C 277.085938 -219.109375 281.578125 -199.628906 281.578125 -177.140625 C 281.578125 -152.503906 278.226562 -129.140625 271.53125 -107.046875 C 264.832031 -84.953125 254.789062 -65.46875 241.40625 -48.59375 C 228.019531 -31.726562 211.484375 -18.472656 191.796875 -8.828125 C 172.117188 0.804688 149.425781 5.625 123.71875 5.625 Z M 135.765625 -72.703125 C 144.066406 -72.703125 151.363281 -75.710938 157.65625 -81.734375 C 163.945312 -87.765625 169.234375 -95.597656 173.515625 -105.234375 C 177.804688 -114.878906 181.019531 -125.320312 183.15625 -136.5625 C 185.300781 -147.8125 186.375 -158.789062 186.375 -169.5 C 186.375 -180.75 184.429688 -190.054688 180.546875 -197.421875 C 176.671875 -204.785156 169.507812 -208.46875 159.0625 -208.46875 C 150.757812 -208.46875 143.460938 -205.453125 137.171875 -199.421875 C 130.878906 -193.398438 125.585938 -185.566406 121.296875 -175.921875 C 117.015625 -166.285156 113.800781 -155.84375 111.65625 -144.59375 C 109.519531 -133.351562 108.453125 -122.378906 108.453125 -111.671875 C 108.453125 -100.421875 110.390625 -91.113281 114.265625 -83.75 C 118.148438 -76.382812 125.316406 -72.703125 135.765625 -72.703125 Z M 135.765625 -72.703125 "/></g></g></g><g fill="#000000" fill-opacity="1"><g transform="translate(385.058558, 308.830435)"><g><path d="M 123.71875 5.625 C 101.21875 5.625 81.664062 1.136719 65.0625 -7.828125 C 48.46875 -16.796875 35.679688 -29.515625 26.703125 -45.984375 C 17.734375 -62.453125 13.25 -81.9375 13.25 -104.4375 C 13.25 -129.070312 16.597656 -152.367188 23.296875 -174.328125 C 29.992188 -196.285156 40.035156 -215.695312 53.421875 -232.5625 C 66.804688 -249.4375 83.335938 -262.691406 103.015625 -272.328125 C 122.703125 -281.972656 145.398438 -286.796875 171.109375 -286.796875 C 193.867188 -286.796875 213.484375 -282.375 229.953125 -273.53125 C 246.421875 -264.695312 259.140625 -252.046875 268.109375 -235.578125 C 277.085938 -219.109375 281.578125 -199.628906 281.578125 -177.140625 C 281.578125 -152.503906 278.226562 -129.140625 271.53125 -107.046875 C 264.832031 -84.953125 254.789062 -65.46875 241.40625 -48.59375 C 228.019531 -31.726562 211.484375 -18.472656 191.796875 -8.828125 C 172.117188 0.804688 149.425781 5.625 123.71875 5.625 Z M 135.765625 -72.703125 C 144.066406 -72.703125 151.363281 -75.710938 157.65625 -81.734375 C 163.945312 -87.765625 169.234375 -95.597656 173.515625 -105.234375 C 177.804688 -114.878906 181.019531 -125.320312 183.15625 -136.5625 C 185.300781 -147.8125 186.375 -158.789062 186.375 -169.5 C 186.375 -180.75 184.429688 -190.054688 180.546875 -197.421875 C 176.671875 -204.785156 169.507812 -208.46875 159.0625 -208.46875 C 150.757812 -208.46875 143.460938 -205.453125 137.171875 -199.421875 C 130.878906 -193.398438 125.585938 -185.566406 121.296875 -175.921875 C 117.015625 -166.285156 113.800781 -155.84375 111.65625 -144.59375 C 109.519531 -133.351562 108.453125 -122.378906 108.453125 -111.671875 C 108.453125 -100.421875 110.390625 -91.113281 114.265625 -83.75 C 118.148438 -76.382812 125.316406 -72.703125 135.765625 -72.703125 Z M 135.765625 -72.703125 "/></g></g></g><g fill="#000000" fill-opacity="1"><g transform="translate(620.034888, 308.830435)"><g><path d="M 283.171875 -281.171875 L 185.578125 -142.59375 L 236.578125 0 L 141.796875 0 L 117.28125 -74.71875 C 115.675781 -79.53125 114.269531 -84.347656 113.0625 -89.171875 C 111.863281 -93.992188 110.59375 -98.945312 109.25 -104.03125 L 108.046875 -104.03125 C 107.242188 -98.675781 106.441406 -93.382812 105.640625 -88.15625 C 104.835938 -82.9375 103.898438 -77.648438 102.828125 -72.296875 L 90.375 0 L 0 0 L 49.8125 -281.171875 L 140.578125 -281.171875 L 129.34375 -220.109375 C 128.269531 -214.222656 127.265625 -208.867188 126.328125 -204.046875 C 125.390625 -199.222656 124.382812 -194.003906 123.3125 -188.390625 L 124.515625 -188.390625 C 126.929688 -193.203125 129.273438 -197.75 131.546875 -202.03125 C 133.828125 -206.320312 136.570312 -210.878906 139.78125 -215.703125 L 182.359375 -281.171875 Z M 283.171875 -281.171875 "/></g></g></g><g fill="#8c52ff" fill-opacity="1"><g transform="translate(836.549815, 308.830435)"><g><path d="M 157.453125 0 L 155.453125 -35.75 L 94.390625 -35.75 L 77.921875 0 L -22.5 0 L 124.109375 -281.171875 L 211.6875 -281.171875 L 259.078125 0 Z M 133.75 -137.78125 L 115.28125 -93.59375 L 156.65625 -93.59375 L 151.828125 -137.78125 C 151.296875 -143.9375 150.828125 -149.691406 150.421875 -155.046875 C 150.023438 -160.398438 149.691406 -166.289062 149.421875 -172.71875 L 148.21875 -172.71875 C 145.539062 -166.019531 143.128906 -160.0625 140.984375 -154.84375 C 138.847656 -149.625 136.4375 -143.9375 133.75 -137.78125 Z M 133.75 -137.78125 "/></g></g></g></g></g><path fill="#000000" d="M 1234.515625 593.765625 C 1236.292969 593.765625 1237.734375 592.324219 1237.734375 590.546875 C 1237.734375 588.765625 1236.292969 587.328125 1234.515625 587.328125 C 1232.738281 587.328125 1231.296875 588.765625 1231.296875 590.546875 C 1231.296875 592.324219 1232.738281 593.765625 1234.515625 593.765625 Z M 1234.515625 593.765625 " fill-opacity="1" fill-rule="nonzero"/><path fill="#000000" d="M 1155.273438 757.6875 C 1153.671875 757.6875 1152.378906 758.984375 1152.378906 760.582031 C 1152.378906 762.179688 1153.671875 763.476562 1155.273438 763.476562 C 1156.871094 763.476562 1158.164062 762.179688 1158.164062 760.582031 C 1158.164062 758.984375 1156.871094 757.6875 1155.273438 757.6875 Z M 1155.273438 757.6875 " fill-opacity="1" fill-rule="nonzero"/><path fill="#000000" d="M 1223.289062 592.527344 C 1224.382812 592.527344 1225.269531 591.640625 1225.269531 590.546875 C 1225.269531 589.453125 1224.382812 588.5625 1223.289062 588.5625 C 1222.195312 588.5625 1221.304688 589.453125 1221.304688 590.546875 C 1221.304688 591.640625 1222.195312 592.527344 1223.289062 592.527344 Z M 1223.289062 592.527344 " fill-opacity="1" fill-rule="nonzero"/><path fill="#000000" d="M 1166.5 758.601562 C 1165.402344 758.601562 1164.515625 759.488281 1164.515625 760.585938 C 1164.515625 761.679688 1165.40625 762.566406 1166.5 762.566406 C 1167.59375 762.566406 1168.484375 761.679688 1168.484375 760.585938 C 1168.484375 759.488281 1167.59375 758.601562 1166.5 758.601562 Z M 1166.5 758.601562 " fill-opacity="1" fill-rule="nonzero"/><path fill="#000000" d="M 1212.058594 603.394531 C 1212.777344 603.394531 1213.359375 602.8125 1213.359375 602.09375 C 1213.359375 601.375 1212.777344 600.792969 1212.058594 600.792969 C 1211.339844 600.792969 1210.757812 601.375 1210.757812 602.09375 C 1210.757812 602.808594 1211.339844 603.394531 1212.058594 603.394531 Z M 1212.058594 603.394531 " fill-opacity="1" fill-rule="nonzero"/><g clip-path="url(#18d63e6b15)"><path fill="#000000" d="M 1234.515625 580.617188 C 1235.234375 580.617188 1235.816406 580.035156 1235.816406 579.316406 C 1235.816406 578.59375 1235.234375 578.011719 1234.515625 578.011719 C 1233.796875 578.011719 1233.214844 578.59375 1233.214844 579.316406 C 1233.214844 580.035156 1233.796875 580.617188 1234.515625 580.617188 Z M 1234.515625 580.617188 " fill-opacity="1" fill-rule="nonzero"/></g><path fill="#000000" d="M 1200.507812 614.351562 C 1201.078125 614.351562 1201.539062 613.890625 1201.539062 613.324219 C 1201.539062 612.753906 1201.078125 612.296875 1200.507812 612.296875 C 1199.941406 612.296875 1199.480469 612.753906 1199.480469 613.324219 C 1199.480469 613.890625 1199.941406 614.351562 1200.507812 614.351562 Z M 1200.507812 614.351562 " fill-opacity="1" fill-rule="nonzero"/><g clip-path="url(#da523928f3)"><path fill="#000000" d="M 1291.304688 671.140625 C 1291.871094 671.140625 1292.332031 670.679688 1292.332031 670.109375 C 1292.332031 669.542969 1291.871094 669.082031 1291.304688 669.082031 C 1290.734375 669.082031 1290.273438 669.542969 1290.273438 670.109375 C 1290.273438 670.679688 1290.734375 671.140625 1291.304688 671.140625 Z M 1291.304688 671.140625 " fill-opacity="1" fill-rule="nonzero"/></g><path fill="#000000" d="M 1246.066406 603.125 C 1246.632812 603.125 1247.09375 602.664062 1247.09375 602.09375 C 1247.09375 601.527344 1246.632812 601.066406 1246.066406 601.066406 C 1245.496094 601.066406 1245.039062 601.527344 1245.039062 602.09375 C 1245.039062 602.664062 1245.496094 603.125 1246.066406 603.125 Z M 1246.066406 603.125 " fill-opacity="1" fill-rule="nonzero"/><path fill="#000000" d="M 1246.066406 591.570312 C 1246.632812 591.570312 1247.09375 591.113281 1247.09375 590.542969 C 1247.09375 589.976562 1246.632812 589.515625 1246.066406 589.515625 C 1245.496094 589.515625 1245.039062 589.976562 1245.039062 590.542969 C 1245.039062 591.113281 1245.496094 591.570312 1246.066406 591.570312 Z M 1246.066406 591.570312 " fill-opacity="1" fill-rule="nonzero"/><g clip-path="url(#f75c79ca42)"><path fill="#000000" d="M 1291.304688 680.3125 C 1290.734375 680.3125 1290.273438 680.769531 1290.273438 681.339844 C 1290.273438 681.90625 1290.734375 682.367188 1291.304688 682.367188 C 1291.871094 682.367188 1292.332031 681.90625 1292.332031 681.339844 C 1292.332031 680.769531 1291.871094 680.3125 1291.304688 680.3125 Z M 1291.304688 680.3125 " fill-opacity="1" fill-rule="nonzero"/></g><path fill="#000000" d="M 1145.070312 760.585938 C 1145.070312 760.71875 1145.046875 760.851562 1144.992188 760.976562 C 1144.941406 761.105469 1144.867188 761.214844 1144.769531 761.3125 C 1144.671875 761.40625 1144.5625 761.480469 1144.4375 761.535156 C 1144.3125 761.585938 1144.179688 761.613281 1144.042969 761.613281 C 1143.90625 761.613281 1143.777344 761.585938 1143.648438 761.535156 C 1143.523438 761.480469 1143.414062 761.40625 1143.316406 761.3125 C 1143.21875 761.214844 1143.144531 761.105469 1143.09375 760.976562 C 1143.039062 760.851562 1143.015625 760.71875 1143.015625 760.585938 C 1143.015625 760.449219 1143.039062 760.316406 1143.09375 760.191406 C 1143.144531 760.066406 1143.21875 759.953125 1143.316406 759.855469 C 1143.414062 759.761719 1143.523438 759.6875 1143.648438 759.632812 C 1143.777344 759.582031 1143.90625 759.554688 1144.042969 759.554688 C 1144.179688 759.554688 1144.3125 759.582031 1144.4375 759.632812 C 1144.5625 759.6875 1144.671875 759.761719 1144.769531 759.855469 C 1144.867188 759.953125 1144.941406 760.066406 1144.992188 760.191406 C 1145.046875 760.316406 1145.070312 760.449219 1145.070312 760.585938 Z M 1145.070312 760.585938 " fill-opacity="1" fill-rule="nonzero"/><g clip-path="url(#87fd12b1d2)"><path fill="#000000" d="M 1154.128906 772.125 L 1155.277344 770.972656 L 1156.425781 772.125 L 1155.277344 773.273438 Z M 1154.128906 772.125 " fill-opacity="1" fill-rule="nonzero"/></g><g clip-path="url(#20a3a168ad)"><path fill="#000000" d="M 1097.339844 670.109375 L 1098.488281 668.960938 L 1099.636719 670.109375 L 1098.488281 671.257812 Z M 1097.339844 670.109375 " fill-opacity="1" fill-rule="nonzero"/></g><g clip-path="url(#09ad2b8334)"><path fill="#000000" d="M 1097.84375 680.699219 L 1099.125 680.699219 L 1099.125 681.980469 L 1097.84375 681.980469 Z M 1097.84375 680.699219 " fill-opacity="1" fill-rule="nonzero"/></g><path fill="#000000" d="M 1199.867188 725.933594 L 1201.152344 725.933594 L 1201.152344 727.214844 L 1199.867188 727.214844 Z M 1199.867188 725.933594 " fill-opacity="1" fill-rule="nonzero"/><g clip-path="url(#548eda0112)"><path fill="#000000" d="M 1245.425781 578.675781 L 1246.707031 578.675781 L 1246.707031 579.957031 L 1245.425781 579.957031 Z M 1245.425781 578.675781 " fill-opacity="1" fill-rule="nonzero"/></g><path fill="#000000" d="M 1253.109375 666.101562 C 1252.75 666.421875 1252.996094 667.113281 1252.324219 666.902344 C 1251.109375 665.050781 1249.339844 663.421875 1247.03125 663.371094 C 1247.175781 662.832031 1248.035156 662.964844 1248.621094 662.558594 C 1254.746094 658.335938 1246.800781 649.84375 1242.21875 655.835938 C 1241.691406 656.527344 1241.566406 657.488281 1240.9375 657.917969 C 1240.824219 655.441406 1238.902344 653.011719 1236.441406 652.460938 C 1236.199219 651.546875 1237.160156 651.824219 1237.710938 651.332031 C 1242.699219 646.882812 1236.910156 639.550781 1231.519531 643.214844 C 1230.738281 643.746094 1230.652344 644.308594 1230.027344 644.765625 C 1229.753906 643.378906 1228.691406 642.367188 1227.800781 641.355469 C 1231.136719 637.71875 1230.714844 633.160156 1226.820312 630.171875 C 1230.894531 626.824219 1230.789062 622.5625 1226.96875 619.09375 C 1226.679688 618.832031 1225.710938 618.75 1226.175781 618.144531 C 1226.199219 618.113281 1226.714844 618.058594 1226.96875 617.824219 C 1232.519531 612.664062 1226.027344 604.617188 1219.96875 608.566406 C 1216.769531 610.652344 1216.84375 615.109375 1219.425781 617.679688 C 1219.789062 618.039062 1220.855469 618.175781 1220.394531 618.773438 C 1220.371094 618.808594 1219.859375 618.863281 1219.605469 619.09375 C 1218.839844 619.789062 1217.765625 620.671875 1217.503906 621.664062 L 1217.039062 621.660156 C 1212.957031 615.535156 1203.769531 620.78125 1207.0625 627.140625 C 1207.613281 628.203125 1208.710938 628.660156 1208.847656 629.683594 C 1207.34375 630.117188 1206.070312 631.386719 1205.632812 632.898438 C 1204.238281 632.488281 1203.6875 630.949219 1201.929688 630.671875 C 1195.316406 629.636719 1192.621094 636.707031 1197.296875 640.914062 C 1195.675781 641.277344 1194.929688 642.667969 1193.929688 643.800781 C 1188.265625 637.539062 1179.550781 645.558594 1185.417969 651.675781 L 1185.425781 652.140625 C 1184.4375 652.074219 1183.445312 654.171875 1182.742188 654.046875 C 1182.445312 653.996094 1181.265625 652.480469 1179.734375 652.222656 C 1176.605469 651.6875 1174.300781 652.496094 1172.445312 655.046875 C 1172.050781 655.585938 1172.113281 656.828125 1171.472656 656.640625 C 1168.671875 650.089844 1158.914062 653.9375 1161.617188 660.71875 C 1162.082031 661.882812 1163.097656 662.34375 1163.289062 663.371094 C 1162.234375 663.328125 1160.933594 665.316406 1160.242188 665.3125 C 1159.933594 665.3125 1158.039062 663.757812 1156.890625 663.519531 C 1153.957031 662.910156 1150.683594 664.09375 1149.488281 666.902344 L 1149.023438 666.898438 C 1143.417969 659.722656 1133.617188 668.707031 1140.5 674.777344 C 1140.832031 675.074219 1141.433594 675.214844 1141.472656 675.25 C 1141.660156 675.429688 1139.839844 676.453125 1139.425781 676.886719 C 1138.433594 677.925781 1138.277344 679.265625 1137.308594 680.058594 C 1136.230469 674.363281 1127.734375 675.226562 1127.339844 680.847656 C 1126.910156 687.011719 1135.398438 688.800781 1137.308594 682.949219 C 1138.25 682.710938 1138.011719 683.832031 1138.464844 684.515625 C 1141.148438 688.613281 1145.65625 688.648438 1149.171875 685.515625 C 1149.363281 686.726562 1150.601562 687.199219 1151.417969 687.917969 C 1146.65625 692.402344 1150.808594 700.246094 1157.195312 698.179688 C 1157.859375 697.96875 1159.613281 696.730469 1159.878906 696.773438 C 1160.027344 696.800781 1162.003906 698.679688 1162.003906 698.828125 C 1162.003906 699.0625 1159.265625 701.597656 1159.761719 702.835938 C 1159.144531 702.554688 1158.992188 701.617188 1158.476562 701.078125 C 1156.269531 698.773438 1152.34375 699.515625 1151.199219 702.457031 C 1149.574219 706.648438 1154.308594 710.308594 1157.949219 707.605469 L 1159.757812 705.40625 C 1160.023438 707.21875 1161.207031 709.3125 1162.96875 709.902344 C 1159.125 713.164062 1159.097656 718.3125 1163.609375 720.960938 C 1159.027344 723.707031 1159.253906 730.722656 1164.570312 732.359375 C 1164.800781 733.246094 1163.894531 733.015625 1163.308594 733.488281 C 1157.066406 738.523438 1164.089844 746.867188 1169.863281 742.617188 C 1173.121094 740.21875 1172.683594 735.902344 1169.6875 733.488281 C 1169.097656 733.015625 1168.191406 733.246094 1168.425781 732.359375 C 1170.308594 731.902344 1171.820312 730.382812 1172.277344 728.503906 C 1173.167969 728.273438 1172.933594 729.179688 1173.410156 729.769531 C 1174.96875 731.703125 1176.351562 732.265625 1178.867188 732.046875 C 1183.917969 731.605469 1185.234375 724.742188 1181.261719 721.925781 C 1182.097656 721.359375 1182.792969 720.714844 1183.507812 720.007812 C 1184.070312 719.460938 1184.273438 718.460938 1185.097656 718.5625 C 1185.1875 719.390625 1186.722656 720.324219 1187.4375 720.558594 C 1193.363281 722.492188 1197.671875 714.617188 1192.484375 711.171875 L 1192.484375 710.699219 C 1193.832031 709.792969 1194.945312 708.675781 1195.851562 707.335938 C 1201.695312 714.101562 1210.40625 705.191406 1203.710938 699.3125 C 1205.246094 698.914062 1206.21875 697.640625 1207.082031 696.425781 C 1209.640625 699.699219 1214.46875 699.742188 1217.03125 696.425781 L 1218.46875 693.855469 C 1220.859375 701.285156 1231.332031 696.664062 1227.519531 689.777344 L 1225.851562 688.082031 C 1226.71875 687.921875 1227.585938 687.34375 1228.253906 686.792969 C 1228.84375 686.3125 1229.003906 685.5625 1229.066406 685.515625 C 1229.378906 685.292969 1231.34375 686.9375 1232.007812 687.210938 C 1234.582031 688.265625 1236.90625 687.730469 1238.96875 685.957031 L 1240.925781 682.949219 C 1243.925781 691.234375 1255.578125 684.796875 1250.183594 677.699219 C 1249.722656 677.09375 1248.8125 677.007812 1248.949219 676.210938 C 1250.546875 675.980469 1251.414062 674.472656 1252.316406 673.324219 C 1252.976562 673.132812 1252.761719 673.859375 1253.265625 674.285156 C 1256.1875 676.765625 1260.894531 676.230469 1262.480469 672.578125 C 1265.054688 666.660156 1258.085938 661.660156 1253.101562 666.105469 Z M 1148.738281 677.144531 C 1148.46875 677.097656 1147.148438 675.609375 1146.613281 675.402344 C 1147.253906 675.195312 1148.742188 673.394531 1149.035156 673.328125 C 1149.457031 673.234375 1150.800781 675.085938 1150.753906 675.359375 C 1150.710938 675.605469 1149.105469 677.210938 1148.734375 677.144531 Z M 1159.605469 688.71875 C 1158.179688 688.417969 1160.679688 686.066406 1161.042969 686.472656 C 1161.328125 686.792969 1160.238281 688.847656 1159.605469 688.71875 Z M 1160.722656 676.371094 L 1159.597656 675.246094 L 1160.410156 674.433594 L 1161.535156 675.558594 Z M 1171.292969 660.367188 C 1171.253906 660.035156 1171.917969 660.132812 1171.949219 660.164062 C 1172.09375 660.300781 1172.664062 663.222656 1173.871094 663.542969 C 1174.03125 663.953125 1172.355469 664.992188 1172.113281 664.992188 C 1171.398438 665 1170.457031 663.199219 1169.386719 663.371094 L 1171.289062 660.367188 Z M 1171.796875 699.632812 L 1170.984375 698.820312 L 1172.273438 697.53125 L 1173.085938 698.347656 Z M 1171.519531 711.472656 L 1170.035156 710.054688 C 1170.414062 709.882812 1171.683594 708.632812 1171.796875 708.628906 C 1172.894531 708.621094 1173.394531 711.308594 1171.519531 711.472656 Z M 1172.914062 724.972656 C 1172.308594 725.53125 1171.878906 723.65625 1171.582031 723.257812 C 1170.929688 722.390625 1169.472656 721.554688 1169.390625 721.4375 C 1169.128906 721.066406 1171.359375 719.246094 1171.515625 719.214844 C 1172.058594 719.121094 1174.03125 721.660156 1174.835938 721.921875 C 1173.785156 722.226562 1173.128906 724.769531 1172.910156 724.96875 Z M 1182.222656 663.539062 C 1182.71875 662.210938 1184.496094 664.3125 1184.144531 664.652344 C 1183.957031 664.835938 1181.996094 664.144531 1182.222656 663.539062 Z M 1184.90625 712.117188 C 1184.199219 712.242188 1182.40625 709.578125 1183.675781 709.253906 C 1184.191406 709.117188 1185.96875 710.308594 1186.058594 710.730469 C 1186.128906 711.078125 1185.179688 712.066406 1184.90625 712.117188 Z M 1193.128906 651.972656 C 1193.015625 651.515625 1194.054688 650.617188 1194.40625 650.863281 C 1194.503906 650.933594 1195.597656 652.886719 1195.371094 653.105469 C 1194.859375 653.300781 1193.207031 652.28125 1193.128906 651.96875 Z M 1195.855469 700.90625 C 1195.191406 700.265625 1193.128906 698.039062 1194.9375 697.722656 C 1195.371094 697.648438 1196.730469 699.222656 1197.296875 699.46875 Z M 1205.183594 639.320312 C 1206.347656 640.027344 1207.761719 641.632812 1206.082031 642.5 L 1203.722656 640.753906 Z M 1207.085938 688.710938 C 1206.769531 688.28125 1205.53125 687.492188 1205.644531 686.957031 C 1205.84375 685.996094 1207.8125 687.335938 1207.886719 687.441406 C 1208.160156 687.820312 1207.355469 688.460938 1207.085938 688.710938 Z M 1216.84375 627.324219 C 1217.097656 627.050781 1217.066406 627.03125 1217.507812 627.117188 C 1217.65625 628.492188 1218.917969 629.21875 1219.75 630.164062 C 1217.757812 632.902344 1217.230469 630.820312 1215.265625 629.515625 C 1215.230469 629.371094 1216.621094 627.558594 1216.84375 627.324219 Z M 1218.820312 641.394531 C 1218.820312 641.851562 1218.449219 642.222656 1217.992188 642.222656 C 1217.535156 642.222656 1217.164062 641.851562 1217.164062 641.394531 C 1217.164062 640.9375 1217.535156 640.566406 1217.992188 640.566406 C 1218.449219 640.566406 1218.820312 640.9375 1218.820312 641.394531 Z M 1218.15625 691.285156 L 1216.230469 687.441406 C 1218.617188 685.59375 1218.507812 687.285156 1220.722656 688.082031 Z M 1229.28125 677.121094 C 1228.714844 676.980469 1228.128906 675.851562 1228.421875 675.566406 C 1228.59375 675.398438 1230.28125 676.132812 1230.34375 676.210938 C 1230.621094 676.558594 1230.027344 677.3125 1229.28125 677.121094 Z M 1229.550781 663.054688 C 1230.042969 662.945312 1230.5625 663.722656 1230.34375 664.007812 C 1230.28125 664.089844 1228.75 664.753906 1228.421875 664.65625 C 1228.125 664.386719 1229.34375 663.101562 1229.550781 663.054688 Z M 1232.390625 652.484375 C 1232.222656 652.617188 1229.953125 654.003906 1229.804688 654.027344 C 1229.40625 654.089844 1228.53125 653.222656 1228.46875 652.898438 C 1228.324219 652.152344 1230.015625 650.796875 1230.027344 649.898438 C 1230.40625 650.511719 1232.417969 651.632812 1232.585938 651.832031 C 1232.71875 651.984375 1232.660156 652.273438 1232.390625 652.484375 Z M 1240.929688 679.734375 L 1238.691406 676.683594 L 1238.691406 676.214844 C 1239.425781 676.367188 1240.527344 674.617188 1240.773438 674.617188 C 1240.917969 674.617188 1242.460938 676.351562 1243.175781 676.214844 C 1243.585938 676.816406 1240.636719 678.640625 1240.929688 679.734375 Z M 1242.558594 664.195312 C 1242.070312 664.46875 1240.886719 665.605469 1240.773438 665.605469 C 1240.628906 665.605469 1238.691406 663.679688 1238.691406 663.535156 C 1238.691406 663.285156 1241.53125 660.585938 1240.9375 659.203125 L 1242.53125 661.617188 C 1243.148438 662.277344 1243.820312 662.972656 1244.78125 663.054688 C 1244.363281 663.667969 1243.289062 663.785156 1242.558594 664.195312 Z M 1242.558594 664.195312 " fill-opacity="1" fill-rule="nonzero"/><path fill="#000000" d="M 1132.492188 675.269531 C 1135.34375 675.269531 1137.652344 672.960938 1137.652344 670.109375 C 1137.652344 667.257812 1135.34375 664.949219 1132.492188 664.949219 C 1129.640625 664.949219 1127.332031 667.257812 1127.332031 670.109375 C 1127.332031 672.960938 1129.640625 675.269531 1132.492188 675.269531 Z M 1132.492188 675.269531 " fill-opacity="1" fill-rule="nonzero"/><path fill="#000000" d="M 1257.292969 676.617188 C 1254.6875 676.617188 1252.574219 678.730469 1252.574219 681.339844 C 1252.574219 683.949219 1254.6875 686.0625 1257.292969 686.0625 C 1259.902344 686.0625 1262.015625 683.949219 1262.015625 681.339844 C 1262.015625 678.730469 1259.902344 676.617188 1257.292969 676.617188 Z M 1257.292969 676.617188 " fill-opacity="1" fill-rule="nonzero"/><path fill="#000000" d="M 1273.140625 670.109375 C 1273.140625 670.414062 1273.109375 670.714844 1273.050781 671.011719 C 1272.992188 671.308594 1272.902344 671.597656 1272.789062 671.878906 C 1272.671875 672.15625 1272.527344 672.421875 1272.359375 672.675781 C 1272.191406 672.925781 1272 673.160156 1271.785156 673.375 C 1271.574219 673.589844 1271.339844 673.78125 1271.085938 673.949219 C 1270.835938 674.117188 1270.570312 674.257812 1270.289062 674.375 C 1270.007812 674.492188 1269.722656 674.578125 1269.421875 674.636719 C 1269.125 674.695312 1268.828125 674.726562 1268.523438 674.726562 C 1268.21875 674.726562 1267.921875 674.695312 1267.621094 674.636719 C 1267.324219 674.578125 1267.035156 674.492188 1266.757812 674.375 C 1266.476562 674.257812 1266.210938 674.117188 1265.957031 673.949219 C 1265.707031 673.78125 1265.472656 673.589844 1265.257812 673.375 C 1265.046875 673.160156 1264.855469 672.925781 1264.683594 672.675781 C 1264.515625 672.421875 1264.375 672.15625 1264.257812 671.878906 C 1264.144531 671.597656 1264.054688 671.308594 1263.996094 671.011719 C 1263.9375 670.714844 1263.90625 670.414062 1263.90625 670.109375 C 1263.90625 669.808594 1263.9375 669.507812 1263.996094 669.210938 C 1264.054688 668.914062 1264.144531 668.625 1264.257812 668.34375 C 1264.375 668.066406 1264.515625 667.796875 1264.683594 667.546875 C 1264.855469 667.292969 1265.046875 667.0625 1265.257812 666.847656 C 1265.472656 666.632812 1265.707031 666.441406 1265.957031 666.273438 C 1266.210938 666.105469 1266.476562 665.960938 1266.757812 665.847656 C 1267.035156 665.730469 1267.324219 665.644531 1267.621094 665.585938 C 1267.921875 665.523438 1268.21875 665.496094 1268.523438 665.496094 C 1268.828125 665.496094 1269.125 665.523438 1269.421875 665.585938 C 1269.722656 665.644531 1270.007812 665.730469 1270.289062 665.847656 C 1270.570312 665.960938 1270.835938 666.105469 1271.085938 666.273438 C 1271.339844 666.441406 1271.574219 666.632812 1271.785156 666.847656 C 1272 667.0625 1272.191406 667.292969 1272.359375 667.546875 C 1272.527344 667.796875 1272.671875 668.066406 1272.789062 668.34375 C 1272.902344 668.625 1272.992188 668.914062 1273.050781 669.210938 C 1273.109375 669.507812 1273.140625 669.808594 1273.140625 670.109375 Z M 1273.140625 670.109375 " fill-opacity="1" fill-rule="nonzero"/><path fill="#000000" d="M 1234.515625 606.335938 C 1236.859375 606.335938 1238.757812 604.4375 1238.757812 602.09375 C 1238.757812 599.753906 1236.859375 597.855469 1234.515625 597.855469 C 1232.175781 597.855469 1230.277344 599.753906 1230.277344 602.09375 C 1230.277344 604.4375 1232.175781 606.335938 1234.515625 606.335938 Z M 1234.515625 606.335938 " fill-opacity="1" fill-rule="nonzero"/><path fill="#000000" d="M 1223.289062 606.300781 C 1225.609375 606.300781 1227.496094 604.417969 1227.496094 602.09375 C 1227.496094 599.773438 1225.609375 597.886719 1223.289062 597.886719 C 1220.964844 597.886719 1219.082031 599.773438 1219.082031 602.09375 C 1219.082031 604.417969 1220.964844 606.300781 1223.289062 606.300781 Z M 1223.289062 606.300781 " fill-opacity="1" fill-rule="nonzero"/><path fill="#000000" d="M 1121.265625 665.902344 C 1118.941406 665.902344 1117.058594 667.785156 1117.058594 670.109375 C 1117.058594 672.433594 1118.941406 674.316406 1121.265625 674.316406 C 1123.589844 674.316406 1125.472656 672.433594 1125.472656 670.109375 C 1125.472656 667.785156 1123.589844 665.902344 1121.265625 665.902344 Z M 1121.265625 665.902344 " fill-opacity="1" fill-rule="nonzero"/><path fill="#000000" d="M 1178.050781 651.539062 C 1180.371094 651.539062 1182.257812 649.65625 1182.257812 647.332031 C 1182.257812 645.011719 1180.371094 643.125 1178.050781 643.125 C 1175.726562 643.125 1173.84375 645.011719 1173.84375 647.332031 C 1173.84375 649.65625 1175.726562 651.539062 1178.050781 651.539062 Z M 1178.050781 651.539062 " fill-opacity="1" fill-rule="nonzero"/><path fill="#000000" d="M 1170.640625 749.355469 C 1170.640625 749.628906 1170.617188 749.898438 1170.5625 750.164062 C 1170.507812 750.429688 1170.429688 750.6875 1170.328125 750.941406 C 1170.222656 751.191406 1170.09375 751.429688 1169.945312 751.65625 C 1169.792969 751.882812 1169.621094 752.09375 1169.429688 752.285156 C 1169.238281 752.476562 1169.027344 752.648438 1168.800781 752.800781 C 1168.574219 752.949219 1168.335938 753.078125 1168.085938 753.183594 C 1167.835938 753.285156 1167.574219 753.363281 1167.308594 753.417969 C 1167.042969 753.46875 1166.773438 753.496094 1166.5 753.496094 C 1166.230469 753.496094 1165.960938 753.46875 1165.691406 753.417969 C 1165.425781 753.363281 1165.167969 753.285156 1164.914062 753.183594 C 1164.664062 753.078125 1164.425781 752.949219 1164.199219 752.800781 C 1163.972656 752.648438 1163.765625 752.476562 1163.570312 752.285156 C 1163.378906 752.09375 1163.207031 751.882812 1163.058594 751.65625 C 1162.90625 751.429688 1162.777344 751.191406 1162.675781 750.941406 C 1162.570312 750.6875 1162.492188 750.429688 1162.4375 750.164062 C 1162.386719 749.898438 1162.359375 749.628906 1162.359375 749.355469 C 1162.359375 749.082031 1162.386719 748.8125 1162.4375 748.546875 C 1162.492188 748.28125 1162.570312 748.023438 1162.675781 747.769531 C 1162.777344 747.519531 1162.90625 747.28125 1163.058594 747.054688 C 1163.207031 746.828125 1163.378906 746.621094 1163.570312 746.425781 C 1163.765625 746.234375 1163.972656 746.0625 1164.199219 745.914062 C 1164.425781 745.761719 1164.664062 745.632812 1164.914062 745.53125 C 1165.167969 745.425781 1165.425781 745.347656 1165.691406 745.292969 C 1165.960938 745.242188 1166.230469 745.214844 1166.5 745.214844 C 1166.773438 745.214844 1167.042969 745.242188 1167.308594 745.292969 C 1167.574219 745.347656 1167.835938 745.425781 1168.085938 745.53125 C 1168.335938 745.632812 1168.574219 745.761719 1168.800781 745.914062 C 1169.027344 746.0625 1169.238281 746.234375 1169.429688 746.425781 C 1169.621094 746.621094 1169.792969 746.828125 1169.945312 747.054688 C 1170.09375 747.28125 1170.222656 747.519531 1170.328125 747.769531 C 1170.429688 748.023438 1170.507812 748.28125 1170.5625 748.546875 C 1170.617188 748.8125 1170.640625 749.082031 1170.640625 749.355469 Z M 1170.640625 749.355469 " fill-opacity="1" fill-rule="nonzero"/><path fill="#000000" d="M 1144.042969 688.519531 C 1141.808594 688.519531 1139.996094 690.332031 1139.996094 692.566406 C 1139.996094 694.800781 1141.808594 696.613281 1144.042969 696.613281 C 1146.277344 696.613281 1148.089844 694.800781 1148.089844 692.566406 C 1148.089844 690.332031 1146.277344 688.519531 1144.042969 688.519531 Z M 1144.042969 688.519531 " fill-opacity="1" fill-rule="nonzero"/><path fill="#000000" d="M 1238.5625 613.320312 C 1238.5625 613.585938 1238.539062 613.851562 1238.484375 614.109375 C 1238.433594 614.371094 1238.355469 614.625 1238.253906 614.871094 C 1238.152344 615.117188 1238.027344 615.347656 1237.882812 615.570312 C 1237.734375 615.789062 1237.566406 615.996094 1237.378906 616.183594 C 1237.191406 616.371094 1236.984375 616.539062 1236.765625 616.6875 C 1236.542969 616.835938 1236.3125 616.957031 1236.066406 617.058594 C 1235.820312 617.164062 1235.566406 617.238281 1235.304688 617.289062 C 1235.046875 617.34375 1234.78125 617.367188 1234.515625 617.367188 C 1234.25 617.367188 1233.988281 617.34375 1233.726562 617.289062 C 1233.464844 617.238281 1233.214844 617.164062 1232.96875 617.058594 C 1232.722656 616.957031 1232.488281 616.835938 1232.269531 616.6875 C 1232.046875 616.539062 1231.84375 616.371094 1231.65625 616.183594 C 1231.464844 615.996094 1231.300781 615.789062 1231.152344 615.570312 C 1231.003906 615.347656 1230.878906 615.117188 1230.777344 614.871094 C 1230.675781 614.625 1230.597656 614.371094 1230.546875 614.109375 C 1230.496094 613.851562 1230.46875 613.585938 1230.46875 613.320312 C 1230.46875 613.054688 1230.496094 612.792969 1230.546875 612.53125 C 1230.597656 612.269531 1230.675781 612.019531 1230.777344 611.773438 C 1230.878906 611.527344 1231.003906 611.292969 1231.152344 611.074219 C 1231.300781 610.851562 1231.464844 610.648438 1231.65625 610.460938 C 1231.84375 610.273438 1232.046875 610.105469 1232.269531 609.957031 C 1232.488281 609.808594 1232.722656 609.683594 1232.96875 609.582031 C 1233.214844 609.480469 1233.464844 609.402344 1233.726562 609.351562 C 1233.988281 609.300781 1234.25 609.273438 1234.515625 609.273438 C 1234.78125 609.273438 1235.046875 609.300781 1235.304688 609.351562 C 1235.566406 609.402344 1235.820312 609.480469 1236.066406 609.582031 C 1236.3125 609.683594 1236.542969 609.808594 1236.765625 609.957031 C 1236.984375 610.105469 1237.191406 610.273438 1237.378906 610.460938 C 1237.566406 610.648438 1237.734375 610.851562 1237.882812 611.074219 C 1238.027344 611.292969 1238.152344 611.527344 1238.253906 611.773438 C 1238.355469 612.019531 1238.433594 612.269531 1238.484375 612.53125 C 1238.539062 612.792969 1238.5625 613.054688 1238.5625 613.320312 Z M 1238.5625 613.320312 " fill-opacity="1" fill-rule="nonzero"/><path fill="#000000" d="M 1234.515625 640.148438 C 1236.753906 640.148438 1238.5625 638.335938 1238.5625 636.101562 C 1238.5625 633.867188 1236.753906 632.054688 1234.515625 632.054688 C 1232.28125 632.054688 1230.46875 633.867188 1230.46875 636.101562 C 1230.46875 638.335938 1232.28125 640.148438 1234.515625 640.148438 Z M 1234.515625 640.148438 " fill-opacity="1" fill-rule="nonzero"/><path fill="#000000" d="M 1155.273438 662.605469 C 1157.507812 662.605469 1159.320312 660.796875 1159.320312 658.558594 C 1159.320312 656.324219 1157.507812 654.511719 1155.273438 654.511719 C 1153.035156 654.511719 1151.226562 656.324219 1151.226562 658.558594 C 1151.226562 660.796875 1153.035156 662.605469 1155.273438 662.605469 Z M 1155.273438 662.605469 " fill-opacity="1" fill-rule="nonzero"/><path fill="#000000" d="M 1121.261719 677.347656 C 1119.058594 677.347656 1117.273438 679.132812 1117.273438 681.335938 C 1117.273438 683.539062 1119.058594 685.328125 1121.261719 685.328125 C 1123.464844 685.328125 1125.253906 683.539062 1125.253906 681.335938 C 1125.253906 679.132812 1123.464844 677.347656 1121.261719 677.347656 Z M 1121.261719 677.347656 " fill-opacity="1" fill-rule="nonzero"/><path fill="#000000" d="M 1159.136719 749.351562 C 1159.136719 749.867188 1159.035156 750.359375 1158.839844 750.832031 C 1158.644531 751.304688 1158.367188 751.722656 1158.003906 752.085938 C 1157.640625 752.445312 1157.222656 752.726562 1156.75 752.921875 C 1156.277344 753.117188 1155.785156 753.214844 1155.273438 753.214844 C 1154.757812 753.214844 1154.265625 753.117188 1153.792969 752.921875 C 1153.320312 752.726562 1152.902344 752.445312 1152.539062 752.085938 C 1152.179688 751.722656 1151.898438 751.304688 1151.703125 750.832031 C 1151.507812 750.359375 1151.410156 749.867188 1151.410156 749.351562 C 1151.410156 748.839844 1151.507812 748.347656 1151.703125 747.875 C 1151.898438 747.402344 1152.179688 746.984375 1152.539062 746.621094 C 1152.902344 746.257812 1153.320312 745.980469 1153.792969 745.785156 C 1154.265625 745.589844 1154.757812 745.488281 1155.273438 745.488281 C 1155.785156 745.488281 1156.277344 745.589844 1156.75 745.785156 C 1157.222656 745.980469 1157.640625 746.257812 1158.003906 746.621094 C 1158.367188 746.984375 1158.644531 747.402344 1158.839844 747.875 C 1159.035156 748.347656 1159.136719 748.839844 1159.136719 749.351562 Z M 1159.136719 749.351562 " fill-opacity="1" fill-rule="nonzero"/><path fill="#000000" d="M 1212.058594 700.289062 C 1209.945312 700.289062 1208.230469 702.003906 1208.230469 704.117188 C 1208.230469 706.234375 1209.945312 707.949219 1212.058594 707.949219 C 1214.175781 707.949219 1215.890625 706.234375 1215.890625 704.117188 C 1215.890625 702.003906 1214.175781 700.289062 1212.058594 700.289062 Z M 1212.058594 700.289062 " fill-opacity="1" fill-rule="nonzero"/><path fill="#000000" d="M 1268.523438 677.507812 C 1266.40625 677.507812 1264.691406 679.222656 1264.691406 681.339844 C 1264.691406 683.457031 1266.40625 685.167969 1268.523438 685.167969 C 1270.640625 685.167969 1272.351562 683.457031 1272.351562 681.339844 C 1272.351562 679.222656 1270.640625 677.507812 1268.523438 677.507812 Z M 1268.523438 677.507812 " fill-opacity="1" fill-rule="nonzero"/><path fill="#000000" d="M 1238.347656 624.550781 C 1238.347656 625.058594 1238.25 625.550781 1238.054688 626.019531 C 1237.859375 626.488281 1237.582031 626.902344 1237.226562 627.261719 C 1236.867188 627.621094 1236.453125 627.898438 1235.980469 628.089844 C 1235.511719 628.285156 1235.023438 628.382812 1234.515625 628.382812 C 1234.007812 628.382812 1233.519531 628.285156 1233.050781 628.089844 C 1232.582031 627.898438 1232.167969 627.621094 1231.808594 627.261719 C 1231.449219 626.902344 1231.171875 626.488281 1230.976562 626.019531 C 1230.785156 625.550781 1230.6875 625.058594 1230.6875 624.550781 C 1230.6875 624.042969 1230.785156 623.554688 1230.976562 623.085938 C 1231.171875 622.617188 1231.449219 622.203125 1231.808594 621.84375 C 1232.167969 621.484375 1232.582031 621.207031 1233.050781 621.015625 C 1233.519531 620.820312 1234.007812 620.722656 1234.515625 620.722656 C 1235.023438 620.722656 1235.511719 620.820312 1235.980469 621.015625 C 1236.453125 621.207031 1236.867188 621.484375 1237.226562 621.84375 C 1237.582031 622.203125 1237.859375 622.617188 1238.054688 623.085938 C 1238.25 623.554688 1238.347656 624.042969 1238.347656 624.550781 Z M 1238.347656 624.550781 " fill-opacity="1" fill-rule="nonzero"/><path fill="#000000" d="M 1234.515625 688.941406 C 1232.511719 688.941406 1230.890625 690.566406 1230.890625 692.570312 C 1230.890625 694.570312 1232.515625 696.195312 1234.515625 696.195312 C 1236.519531 696.195312 1238.144531 694.570312 1238.144531 692.570312 C 1238.144531 690.566406 1236.519531 688.941406 1234.515625 688.941406 Z M 1234.515625 688.941406 " fill-opacity="1" fill-rule="nonzero"/><path fill="#000000" d="M 1215.6875 613.324219 C 1215.6875 613.804688 1215.59375 614.265625 1215.410156 614.710938 C 1215.226562 615.15625 1214.964844 615.546875 1214.625 615.890625 C 1214.285156 616.230469 1213.890625 616.492188 1213.445312 616.675781 C 1213.003906 616.859375 1212.539062 616.949219 1212.058594 616.949219 C 1211.578125 616.949219 1211.117188 616.859375 1210.671875 616.675781 C 1210.226562 616.492188 1209.835938 616.230469 1209.492188 615.890625 C 1209.152344 615.546875 1208.890625 615.15625 1208.707031 614.710938 C 1208.523438 614.265625 1208.433594 613.804688 1208.433594 613.324219 C 1208.433594 612.84375 1208.523438 612.378906 1208.707031 611.9375 C 1208.890625 611.492188 1209.152344 611.097656 1209.492188 610.757812 C 1209.835938 610.417969 1210.226562 610.15625 1210.671875 609.972656 C 1211.117188 609.789062 1211.578125 609.695312 1212.058594 609.695312 C 1212.539062 609.695312 1213.003906 609.789062 1213.445312 609.972656 C 1213.890625 610.15625 1214.285156 610.417969 1214.625 610.757812 C 1214.964844 611.097656 1215.226562 611.492188 1215.410156 611.9375 C 1215.59375 612.378906 1215.6875 612.84375 1215.6875 613.324219 Z M 1215.6875 613.324219 " fill-opacity="1" fill-rule="nonzero"/><path fill="#000000" d="M 1155.273438 741.753906 C 1157.277344 741.753906 1158.898438 740.128906 1158.898438 738.128906 C 1158.898438 736.125 1157.273438 734.5 1155.273438 734.5 C 1153.269531 734.5 1151.644531 736.125 1151.644531 738.128906 C 1151.644531 740.128906 1153.269531 741.753906 1155.273438 741.753906 Z M 1155.273438 741.753906 " fill-opacity="1" fill-rule="nonzero"/><path fill="#000000" d="M 1181.558594 738.125 C 1181.558594 738.589844 1181.46875 739.039062 1181.292969 739.46875 C 1181.113281 739.898438 1180.859375 740.277344 1180.53125 740.605469 C 1180.203125 740.933594 1179.824219 741.1875 1179.394531 741.367188 C 1178.964844 741.546875 1178.515625 741.632812 1178.050781 741.632812 C 1177.585938 741.632812 1177.136719 741.546875 1176.707031 741.367188 C 1176.277344 741.1875 1175.898438 740.933594 1175.570312 740.605469 C 1175.238281 740.277344 1174.984375 739.898438 1174.808594 739.46875 C 1174.628906 739.039062 1174.539062 738.589844 1174.539062 738.125 C 1174.539062 737.660156 1174.628906 737.210938 1174.808594 736.78125 C 1174.984375 736.351562 1175.238281 735.972656 1175.570312 735.644531 C 1175.898438 735.3125 1176.277344 735.058594 1176.707031 734.882812 C 1177.136719 734.703125 1177.585938 734.613281 1178.050781 734.613281 C 1178.515625 734.613281 1178.964844 734.703125 1179.394531 734.882812 C 1179.824219 735.058594 1180.203125 735.3125 1180.53125 735.644531 C 1180.859375 735.972656 1181.113281 736.351562 1181.292969 736.78125 C 1181.46875 737.210938 1181.558594 737.660156 1181.558594 738.125 Z M 1181.558594 738.125 " fill-opacity="1" fill-rule="nonzero"/><path fill="#000000" d="M 1155.273438 718.652344 C 1157.097656 718.652344 1158.574219 717.171875 1158.574219 715.347656 C 1158.574219 713.527344 1157.097656 712.046875 1155.273438 712.046875 C 1153.445312 712.046875 1151.96875 713.527344 1151.96875 715.347656 C 1151.96875 717.171875 1153.449219 718.652344 1155.273438 718.652344 Z M 1155.273438 718.652344 " fill-opacity="1" fill-rule="nonzero"/><path fill="#000000" d="M 1189.277344 639.40625 C 1191.105469 639.40625 1192.582031 637.925781 1192.582031 636.105469 C 1192.582031 634.28125 1191.105469 632.800781 1189.277344 632.800781 C 1187.453125 632.800781 1185.976562 634.28125 1185.976562 636.105469 C 1185.976562 637.925781 1187.457031 639.40625 1189.277344 639.40625 Z M 1189.277344 639.40625 " fill-opacity="1" fill-rule="nonzero"/><path fill="#000000" d="M 1155.273438 729.878906 C 1157.097656 729.878906 1158.574219 728.402344 1158.574219 726.578125 C 1158.574219 724.753906 1157.097656 723.273438 1155.273438 723.273438 C 1153.445312 723.273438 1151.96875 724.753906 1151.96875 726.578125 C 1151.96875 728.402344 1153.449219 729.878906 1155.273438 729.878906 Z M 1155.273438 729.878906 " fill-opacity="1" fill-rule="nonzero"/><path fill="#000000" d="M 1203.730469 715.347656 C 1203.730469 715.773438 1203.648438 716.183594 1203.484375 716.578125 C 1203.320312 716.972656 1203.085938 717.320312 1202.785156 717.621094 C 1202.484375 717.925781 1202.136719 718.15625 1201.742188 718.320312 C 1201.347656 718.484375 1200.9375 718.566406 1200.507812 718.566406 C 1200.082031 718.566406 1199.671875 718.484375 1199.277344 718.320312 C 1198.882812 718.15625 1198.535156 717.925781 1198.234375 717.621094 C 1197.929688 717.320312 1197.699219 716.972656 1197.535156 716.578125 C 1197.371094 716.183594 1197.289062 715.773438 1197.289062 715.347656 C 1197.289062 714.917969 1197.371094 714.507812 1197.535156 714.113281 C 1197.699219 713.71875 1197.929688 713.371094 1198.234375 713.070312 C 1198.535156 712.769531 1198.882812 712.535156 1199.277344 712.371094 C 1199.671875 712.207031 1200.082031 712.128906 1200.507812 712.128906 C 1200.9375 712.128906 1201.347656 712.207031 1201.742188 712.371094 C 1202.136719 712.535156 1202.484375 712.769531 1202.785156 713.070312 C 1203.085938 713.371094 1203.320312 713.71875 1203.484375 714.113281 C 1203.648438 714.507812 1203.730469 714.917969 1203.730469 715.347656 Z M 1203.730469 715.347656 " fill-opacity="1" fill-rule="nonzero"/><path fill="#000000" d="M 1203.730469 624.550781 C 1203.730469 624.980469 1203.648438 625.390625 1203.484375 625.785156 C 1203.320312 626.179688 1203.085938 626.527344 1202.785156 626.828125 C 1202.484375 627.128906 1202.136719 627.363281 1201.742188 627.527344 C 1201.347656 627.691406 1200.9375 627.773438 1200.507812 627.773438 C 1200.082031 627.773438 1199.671875 627.691406 1199.277344 627.527344 C 1198.882812 627.363281 1198.535156 627.128906 1198.234375 626.828125 C 1197.929688 626.527344 1197.699219 626.179688 1197.535156 625.785156 C 1197.371094 625.390625 1197.289062 624.980469 1197.289062 624.550781 C 1197.289062 624.125 1197.371094 623.714844 1197.535156 623.320312 C 1197.699219 622.925781 1197.929688 622.578125 1198.234375 622.277344 C 1198.535156 621.972656 1198.882812 621.742188 1199.277344 621.578125 C 1199.671875 621.414062 1200.082031 621.332031 1200.507812 621.332031 C 1200.9375 621.332031 1201.347656 621.414062 1201.742188 621.578125 C 1202.136719 621.742188 1202.484375 621.972656 1202.785156 622.277344 C 1203.085938 622.578125 1203.320312 622.925781 1203.484375 623.320312 C 1203.648438 623.714844 1203.730469 624.125 1203.730469 624.550781 Z M 1203.730469 624.550781 " fill-opacity="1" fill-rule="nonzero"/><path fill="#000000" d="M 1189.277344 723.402344 C 1187.527344 723.402344 1186.105469 724.824219 1186.105469 726.574219 C 1186.105469 728.328125 1187.527344 729.746094 1189.277344 729.746094 C 1191.03125 729.746094 1192.449219 728.328125 1192.449219 726.574219 C 1192.449219 724.824219 1191.03125 723.402344 1189.277344 723.402344 Z M 1189.277344 723.402344 " fill-opacity="1" fill-rule="nonzero"/><path fill="#000000" d="M 1283.054688 670.109375 C 1283.054688 670.507812 1282.976562 670.886719 1282.828125 671.25 C 1282.675781 671.617188 1282.460938 671.9375 1282.179688 672.21875 C 1281.902344 672.496094 1281.578125 672.710938 1281.214844 672.863281 C 1280.851562 673.015625 1280.46875 673.089844 1280.074219 673.089844 C 1279.679688 673.089844 1279.300781 673.015625 1278.933594 672.863281 C 1278.570312 672.710938 1278.246094 672.496094 1277.96875 672.21875 C 1277.6875 671.9375 1277.472656 671.617188 1277.324219 671.25 C 1277.171875 670.886719 1277.097656 670.507812 1277.097656 670.109375 C 1277.097656 669.714844 1277.171875 669.335938 1277.324219 668.972656 C 1277.472656 668.605469 1277.6875 668.285156 1277.96875 668.003906 C 1278.246094 667.726562 1278.570312 667.511719 1278.933594 667.359375 C 1279.300781 667.207031 1279.679688 667.132812 1280.074219 667.132812 C 1280.46875 667.132812 1280.851562 667.207031 1281.214844 667.359375 C 1281.578125 667.511719 1281.902344 667.726562 1282.179688 668.003906 C 1282.460938 668.285156 1282.675781 668.605469 1282.828125 668.972656 C 1282.976562 669.335938 1283.054688 669.714844 1283.054688 670.109375 Z M 1283.054688 670.109375 " fill-opacity="1" fill-rule="nonzero"/><path fill="#000000" d="M 1257.292969 661.457031 C 1258.894531 661.457031 1260.1875 660.160156 1260.1875 658.5625 C 1260.1875 656.964844 1258.894531 655.667969 1257.292969 655.667969 C 1255.695312 655.667969 1254.402344 656.964844 1254.402344 658.5625 C 1254.402344 660.160156 1255.695312 661.457031 1257.292969 661.457031 Z M 1257.292969 661.457031 " fill-opacity="1" fill-rule="nonzero"/><path fill="#000000" d="M 1144.042969 661.324219 C 1145.570312 661.324219 1146.804688 660.085938 1146.804688 658.5625 C 1146.804688 657.035156 1145.570312 655.800781 1144.042969 655.800781 C 1142.515625 655.800781 1141.28125 657.035156 1141.28125 658.5625 C 1141.28125 660.085938 1142.515625 661.324219 1144.042969 661.324219 Z M 1144.042969 661.324219 " fill-opacity="1" fill-rule="nonzero"/><path fill="#000000" d="M 1110.035156 667.394531 C 1108.535156 667.394531 1107.320312 668.609375 1107.320312 670.109375 C 1107.320312 671.605469 1108.535156 672.820312 1110.035156 672.820312 C 1111.53125 672.820312 1112.746094 671.605469 1112.746094 670.109375 C 1112.746094 668.609375 1111.53125 667.394531 1110.035156 667.394531 Z M 1110.035156 667.394531 " fill-opacity="1" fill-rule="nonzero"/><path fill="#000000" d="M 1280.074219 678.730469 C 1278.632812 678.730469 1277.464844 679.898438 1277.464844 681.339844 C 1277.464844 682.78125 1278.632812 683.949219 1280.074219 683.949219 C 1281.515625 683.949219 1282.6875 682.78125 1282.6875 681.339844 C 1282.6875 679.898438 1281.515625 678.730469 1280.074219 678.730469 Z M 1280.074219 678.730469 " fill-opacity="1" fill-rule="nonzero"/><path fill="#000000" d="M 1110.035156 678.859375 C 1108.664062 678.859375 1107.554688 679.96875 1107.554688 681.335938 C 1107.554688 682.707031 1108.667969 683.816406 1110.035156 683.816406 C 1111.402344 683.816406 1112.511719 682.707031 1112.511719 681.335938 C 1112.511719 679.96875 1111.402344 678.859375 1110.035156 678.859375 Z M 1110.035156 678.859375 " fill-opacity="1" fill-rule="nonzero"/><path fill="#000000" d="M 1246.066406 690.308594 C 1244.816406 690.308594 1243.804688 691.320312 1243.804688 692.570312 C 1243.804688 693.816406 1244.816406 694.828125 1246.066406 694.828125 C 1247.3125 694.828125 1248.324219 693.816406 1248.324219 692.570312 C 1248.324219 691.320312 1247.3125 690.308594 1246.066406 690.308594 Z M 1246.066406 690.308594 " fill-opacity="1" fill-rule="nonzero"/><path fill="#000000" d="M 1166.5 649.53125 C 1167.714844 649.53125 1168.699219 648.546875 1168.699219 647.332031 C 1168.699219 646.117188 1167.714844 645.128906 1166.5 645.128906 C 1165.285156 645.128906 1164.300781 646.117188 1164.300781 647.332031 C 1164.300781 648.546875 1165.285156 649.53125 1166.5 649.53125 Z M 1166.5 649.53125 " fill-opacity="1" fill-rule="nonzero"/><path fill="#000000" d="M 1246.066406 649.3125 C 1247.164062 649.3125 1248.050781 648.425781 1248.050781 647.332031 C 1248.050781 646.234375 1247.160156 645.347656 1246.066406 645.347656 C 1244.972656 645.347656 1244.082031 646.234375 1244.082031 647.332031 C 1244.082031 648.425781 1244.972656 649.3125 1246.066406 649.3125 Z M 1246.066406 649.3125 " fill-opacity="1" fill-rule="nonzero"/><path fill="#000000" d="M 1132.492188 690.585938 C 1131.398438 690.585938 1130.511719 691.472656 1130.511719 692.570312 C 1130.511719 693.664062 1131.398438 694.550781 1132.492188 694.550781 C 1133.589844 694.550781 1134.476562 693.664062 1134.476562 692.570312 C 1134.476562 691.472656 1133.589844 690.585938 1132.492188 690.585938 Z M 1132.492188 690.585938 " fill-opacity="1" fill-rule="nonzero"/><path fill="#000000" d="M 1223.289062 702.335938 C 1222.304688 702.335938 1221.511719 703.132812 1221.511719 704.113281 C 1221.511719 705.09375 1222.304688 705.890625 1223.289062 705.890625 C 1224.269531 705.890625 1225.0625 705.09375 1225.0625 704.113281 C 1225.0625 703.132812 1224.269531 702.335938 1223.289062 702.335938 Z M 1223.289062 702.335938 " fill-opacity="1" fill-rule="nonzero"/><path fill="#000000" d="M 1134.132812 658.558594 C 1134.132812 658.777344 1134.089844 658.984375 1134.007812 659.1875 C 1133.925781 659.386719 1133.808594 659.5625 1133.652344 659.714844 C 1133.5 659.871094 1133.324219 659.988281 1133.121094 660.070312 C 1132.921875 660.15625 1132.714844 660.195312 1132.496094 660.195312 C 1132.277344 660.195312 1132.070312 660.15625 1131.871094 660.070312 C 1131.667969 659.988281 1131.492188 659.871094 1131.339844 659.714844 C 1131.183594 659.5625 1131.066406 659.386719 1130.984375 659.1875 C 1130.902344 658.984375 1130.859375 658.777344 1130.859375 658.558594 C 1130.859375 658.34375 1130.902344 658.132812 1130.984375 657.933594 C 1131.066406 657.730469 1131.183594 657.554688 1131.339844 657.402344 C 1131.492188 657.25 1131.667969 657.128906 1131.871094 657.046875 C 1132.070312 656.964844 1132.277344 656.921875 1132.496094 656.921875 C 1132.714844 656.921875 1132.921875 656.964844 1133.121094 657.046875 C 1133.324219 657.128906 1133.5 657.25 1133.652344 657.402344 C 1133.808594 657.554688 1133.925781 657.730469 1134.007812 657.933594 C 1134.089844 658.132812 1134.132812 658.34375 1134.132812 658.558594 Z M 1134.132812 658.558594 " fill-opacity="1" fill-rule="nonzero"/><path fill="#000000" d="M 1268.523438 659.859375 C 1269.242188 659.859375 1269.824219 659.277344 1269.824219 658.558594 C 1269.824219 657.839844 1269.242188 657.257812 1268.523438 657.257812 C 1267.804688 657.257812 1267.222656 657.84375 1267.222656 658.558594 C 1267.222656 659.277344 1267.804688 659.859375 1268.523438 659.859375 Z M 1268.523438 659.859375 " fill-opacity="1" fill-rule="nonzero"/><path fill="#000000" d="M 1178.050781 748.054688 C 1177.332031 748.054688 1176.746094 748.636719 1176.746094 749.355469 C 1176.746094 750.074219 1177.332031 750.65625 1178.050781 750.65625 C 1178.769531 750.65625 1179.351562 750.074219 1179.351562 749.355469 C 1179.351562 748.640625 1178.769531 748.054688 1178.050781 748.054688 Z M 1178.050781 748.054688 " fill-opacity="1" fill-rule="nonzero"/><path fill="#000000" d="M 1144.042969 702.816406 C 1143.324219 702.816406 1142.742188 703.402344 1142.742188 704.121094 C 1142.742188 704.839844 1143.324219 705.421875 1144.042969 705.421875 C 1144.761719 705.421875 1145.34375 704.839844 1145.34375 704.121094 C 1145.34375 703.402344 1144.761719 702.816406 1144.042969 702.816406 Z M 1144.042969 702.816406 " fill-opacity="1" fill-rule="nonzero"/><path fill="#000000" d="M 1178.050781 637.128906 C 1178.617188 637.128906 1179.078125 636.671875 1179.078125 636.101562 C 1179.078125 635.535156 1178.617188 635.074219 1178.050781 635.074219 C 1177.480469 635.074219 1177.023438 635.535156 1177.023438 636.101562 C 1177.023438 636.671875 1177.480469 637.128906 1178.050781 637.128906 Z M 1178.050781 637.128906 " fill-opacity="1" fill-rule="nonzero"/><path fill="#000000" d="M 1212.058594 714.316406 C 1211.492188 714.316406 1211.03125 714.777344 1211.03125 715.347656 C 1211.03125 715.914062 1211.492188 716.375 1212.058594 716.375 C 1212.628906 716.375 1213.085938 715.914062 1213.085938 715.347656 C 1213.085938 714.777344 1212.628906 714.316406 1212.058594 714.316406 Z M 1212.058594 714.316406 " fill-opacity="1" fill-rule="nonzero"/><path fill="#000000" d="M 1257.292969 691.539062 C 1256.726562 691.539062 1256.265625 692 1256.265625 692.570312 C 1256.265625 693.136719 1256.726562 693.597656 1257.292969 693.597656 C 1257.863281 693.597656 1258.324219 693.136719 1258.324219 692.570312 C 1258.324219 692 1257.863281 691.539062 1257.292969 691.539062 Z M 1257.292969 691.539062 " fill-opacity="1" fill-rule="nonzero"/><path fill="#000000" d="M 1188.128906 738.125 L 1189.277344 736.976562 L 1190.425781 738.125 L 1189.277344 739.273438 Z M 1188.128906 738.125 " fill-opacity="1" fill-rule="nonzero"/><path fill="#000000" d="M 1120.113281 658.5625 L 1121.261719 657.414062 L 1122.410156 658.5625 L 1121.261719 659.710938 Z M 1120.113281 658.5625 " fill-opacity="1" fill-rule="nonzero"/><path fill="#000000" d="M 1188.128906 624.550781 L 1189.277344 623.402344 L 1190.429688 624.550781 L 1189.277344 625.699219 Z M 1188.128906 624.550781 " fill-opacity="1" fill-rule="nonzero"/><path fill="#000000" d="M 1120.625 691.925781 L 1121.90625 691.925781 L 1121.90625 693.210938 L 1120.625 693.210938 Z M 1120.625 691.925781 " fill-opacity="1" fill-rule="nonzero"/><path fill="#000000" d="M 1154.628906 646.6875 L 1155.914062 646.6875 L 1155.914062 647.972656 L 1154.628906 647.972656 Z M 1154.628906 646.6875 " fill-opacity="1" fill-rule="nonzero"/><path fill="#000000" d="M 1143.402344 748.714844 L 1144.683594 748.714844 L 1144.683594 749.996094 L 1143.402344 749.996094 Z M 1143.402344 748.714844 " fill-opacity="1" fill-rule="nonzero"/></svg>