<svg xmlns="http://www.w3.org/2000/svg" xmlns:xlink="http://www.w3.org/1999/xlink" width="2000" zoomAndPan="magnify" viewBox="0 0 1500 1499.999933" height="2000" preserveAspectRatio="xMidYMid meet" version="1.0"><defs><g/><clipPath id="afd3dffe7d"><path d="M 1057 601 L 1312 601 L 1312 882.152344 L 1057 882.152344 Z M 1057 601 " clip-rule="nonzero"/></clipPath></defs><path fill="#0a0a0a" d="M 1355.949219 843.082031 L 1288.105469 725.597656 L 1258.195312 777.464844 L 1311.019531 868.984375 C 1315.792969 877.257812 1324.511719 881.964844 1333.484375 881.964844 C 1337.875 881.964844 1342.332031 880.820312 1346.402344 878.464844 C 1358.878906 871.273438 1363.078125 855.492188 1355.949219 843.082031 Z M 1355.949219 843.082031 " fill-opacity="1" fill-rule="nonzero"/><g clip-path="url(#afd3dffe7d)"><path fill="#0a0a0a" d="M 1308.34375 661.0625 L 1279.578125 710.894531 L 1249.605469 762.765625 L 1203.273438 843.015625 C 1189.398438 867.074219 1163.496094 882.03125 1135.746094 882.03125 C 1107.554688 882.03125 1082.289062 867.457031 1068.160156 843.015625 C 1054.03125 818.640625 1054.03125 789.429688 1068.160156 764.992188 L 1149.238281 624.660156 C 1157.640625 610.085938 1172.722656 601.367188 1189.523438 601.367188 C 1206.328125 601.367188 1221.410156 610.085938 1229.875 624.660156 L 1232.800781 629.75 L 1241.203125 644.261719 L 1211.226562 696.128906 L 1189.523438 658.582031 L 1113.15625 790.894531 C 1106.34375 802.667969 1110.863281 813.105469 1113.15625 817.050781 C 1115.445312 820.996094 1122.191406 830.160156 1135.8125 830.160156 C 1145.101562 830.160156 1153.820312 825.132812 1158.402344 817.050781 L 1219.691406 710.894531 L 1249.667969 659.027344 L 1263.414062 635.160156 C 1270.605469 622.75 1286.453125 618.488281 1298.863281 625.679688 C 1311.273438 632.808594 1315.535156 648.652344 1308.34375 661.0625 Z M 1308.34375 661.0625 " fill-opacity="1" fill-rule="nonzero"/></g><path fill="#0a0a0a" d="M 1295.746094 599.457031 C 1309.617188 630.707031 1355.886719 611.550781 1343.667969 579.601562 C 1329.730469 548.417969 1283.460938 567.574219 1295.746094 599.457031 Z M 1295.746094 599.457031 " fill-opacity="1" fill-rule="nonzero"/><g fill="#0a0a0a" fill-opacity="1"><g transform="translate(175.687122, 871.432465)"><g><path d="M 20.640625 -191.890625 L 82.28125 -191.890625 L 82.28125 -49.09375 L 180.734375 -49.09375 L 180.734375 0 L 20.640625 0 Z M 20.640625 -191.890625 "/></g></g></g><g fill="#0a0a0a" fill-opacity="1"><g transform="translate(356.988034, 871.432465)"><g><path d="M 116.03125 -195.25 C 149.125 -195.25 174.691406 -186.785156 192.734375 -169.859375 C 210.773438 -152.941406 219.796875 -128.304688 219.796875 -95.953125 C 219.796875 -63.597656 210.773438 -38.957031 192.734375 -22.03125 C 174.691406 -5.113281 149.125 3.34375 116.03125 3.34375 C 82.9375 3.34375 57.414062 -5.066406 39.46875 -21.890625 C 21.519531 -38.722656 12.546875 -63.410156 12.546875 -95.953125 C 12.546875 -128.492188 21.519531 -153.175781 39.46875 -170 C 57.414062 -186.832031 82.9375 -195.25 116.03125 -195.25 Z M 116.03125 -149.21875 C 102.832031 -149.21875 92.789062 -145.21875 85.90625 -137.21875 C 79.03125 -129.226562 75.59375 -118.445312 75.59375 -104.875 L 75.59375 -87.03125 C 75.59375 -73.445312 79.03125 -62.65625 85.90625 -54.65625 C 92.789062 -46.664062 102.832031 -42.671875 116.03125 -42.671875 C 129.226562 -42.671875 139.3125 -46.664062 146.28125 -54.65625 C 153.257812 -62.65625 156.75 -73.445312 156.75 -87.03125 L 156.75 -104.875 C 156.75 -118.445312 153.257812 -129.226562 146.28125 -137.21875 C 139.3125 -145.21875 129.226562 -149.21875 116.03125 -149.21875 Z M 116.03125 -149.21875 "/></g></g></g><g fill="#0a0a0a" fill-opacity="1"><g transform="translate(589.332149, 871.432465)"><g><path d="M 116.03125 -195.25 C 149.125 -195.25 174.691406 -186.785156 192.734375 -169.859375 C 210.773438 -152.941406 219.796875 -128.304688 219.796875 -95.953125 C 219.796875 -63.597656 210.773438 -38.957031 192.734375 -22.03125 C 174.691406 -5.113281 149.125 3.34375 116.03125 3.34375 C 82.9375 3.34375 57.414062 -5.066406 39.46875 -21.890625 C 21.519531 -38.722656 12.546875 -63.410156 12.546875 -95.953125 C 12.546875 -128.492188 21.519531 -153.175781 39.46875 -170 C 57.414062 -186.832031 82.9375 -195.25 116.03125 -195.25 Z M 116.03125 -149.21875 C 102.832031 -149.21875 92.789062 -145.21875 85.90625 -137.21875 C 79.03125 -129.226562 75.59375 -118.445312 75.59375 -104.875 L 75.59375 -87.03125 C 75.59375 -73.445312 79.03125 -62.65625 85.90625 -54.65625 C 92.789062 -46.664062 102.832031 -42.671875 116.03125 -42.671875 C 129.226562 -42.671875 139.3125 -46.664062 146.28125 -54.65625 C 153.257812 -62.65625 156.75 -73.445312 156.75 -87.03125 L 156.75 -104.875 C 156.75 -118.445312 153.257812 -129.226562 146.28125 -137.21875 C 139.3125 -145.21875 129.226562 -149.21875 116.03125 -149.21875 Z M 116.03125 -149.21875 "/></g></g></g><g fill="#0a0a0a" fill-opacity="1"><g transform="translate(821.676212, 871.432465)"><g><path d="M 150.625 -191.890625 L 227.046875 -191.890625 L 158.15625 -112.96875 L 228.4375 0 L 155.640625 0 L 115.75 -70.28125 L 82.28125 -42.953125 L 82.28125 0 L 20.640625 0 L 20.640625 -191.890625 L 82.28125 -191.890625 L 82.28125 -109.890625 Z M 150.625 -191.890625 "/></g></g></g></svg>